<svg width="42" height="42" viewBox="0 0 42 42" fill="none" xmlns="http://www.w3.org/2000/svg">
<circle cx="21" cy="21" r="21" fill="#85D5F3"/>
<path d="M23 25L19 21.0816L23 17" stroke="white" stroke-width="2" stroke-linecap="round" stroke-linejoin="round"/>
<path d="M21.0096 10C23.6865 10.0023 26.2707 10.9808 28.2779 12.7519C30.2852 14.523 31.5776 16.9653 31.9132 19.6211C32.2488 22.2769 31.6044 24.9639 30.1007 27.1787C28.5971 29.3934 26.3375 30.9838 23.7453 31.6519C21.1531 32.32 18.4063 32.0199 16.0195 30.8079C13.6327 29.5958 11.7697 27.555 10.7798 25.0679C9.78987 22.5807 9.74084 19.818 10.6419 17.2973C11.543 14.7766 13.3323 12.671 15.6746 11.375" stroke="white" stroke-width="2" stroke-linecap="round" stroke-linejoin="round"/>
</svg>
