<svg width="40" height="50" viewBox="0 0 40 50" fill="none" xmlns="http://www.w3.org/2000/svg">
<path opacity="0.9" d="M4 50L4 0H11C15.6466 0 17.9698 0 19.9018 0.384294C27.8356 1.96243 34.0376 8.16438 35.6157 16.0982C36 18.0302 36 20.3534 36 25V25C36 29.6466 36 31.9698 35.6157 33.9018C34.0376 41.8356 27.8356 48.0376 19.9018 49.6157C17.9698 50 15.6466 50 11 50H4Z" fill="#85D5F3"/>
<g clip-path="url(#clip0_2754_533)">
<path d="M19.1666 15.8333L28.3333 24.9999L19.1666 34.1666" stroke="white" stroke-width="2" stroke-linecap="round" stroke-linejoin="round"/>
<path d="M10.8334 15.8333L20 24.9999L10.8334 34.1666" stroke="white" stroke-width="2" stroke-linecap="round" stroke-linejoin="round"/>
</g>
<defs>
<clipPath id="clip0_2754_533">
<rect width="40" height="40" fill="white" transform="translate(0 5)"/>
</clipPath>
</defs>
</svg>
