<svg width="63" height="70" viewBox="0 0 63 70" fill="none" xmlns="http://www.w3.org/2000/svg">
<path d="M40.0037 14.6804L3.47188 21.3989L17.4803 28.2608L46.9682 52.5505L40.0037 14.6804Z" fill="#D6C990"/>
<path d="M55.5468 22.1854L40.3321 14.62L47.5015 53.6039L62.5114 60.0555L55.5468 22.1854Z" fill="#D6C990"/>
<rect width="38.5201" height="38.5051" transform="matrix(-0.983506 0.180873 0.180873 0.983506 55.8159 21.7678)" fill="#85D5F3"/>
<path d="M17.3743 28.8375L2.15965 21.2721L9.32904 60.256L24.2365 66.1507L17.3743 28.8375Z" fill="#51B8DF"/>
<rect width="38.4716" height="38.4716" transform="matrix(-0.983506 0.180873 0.180873 0.983506 55.8159 21.7678)" fill="#FAF0C6"/>
<path d="M17.3743 28.8375L2.15965 21.2721L9.32905 60.256L24.3389 66.7076L17.3743 28.8375Z" fill="#F3DF85"/>
<path d="M40.2306 14.3996L2.85095 21.274L14.3677 6.88637L50.8995 0.167932L40.2306 14.3996Z" fill="#EFEDDB"/>
</svg>
