<svg width="270" height="270" viewBox="0 0 270 270" fill="none" xmlns="http://www.w3.org/2000/svg">
<path d="M256.754 115.688L262.114 114.816C262.894 114.689 263.468 114.576 263.836 114.475L263.786 113.07C263.954 112.982 264.131 112.953 264.319 112.983C264.392 113.61 264.477 114.214 264.574 114.796C264.68 115.437 264.799 116.031 264.93 116.577C264.719 116.652 264.537 116.681 264.382 116.666L264.011 115.343L252.921 117.147L252.791 116.363L260.548 108.399C260.902 108.028 261.371 107.582 261.953 107.061C261.508 107.185 260.964 107.298 260.322 107.403L253.956 108.438C253.176 108.565 252.602 108.679 252.234 108.779L252.284 110.184C252.116 110.273 251.939 110.301 251.751 110.271C251.63 109.42 251.54 108.816 251.481 108.461C251.385 107.879 251.271 107.284 251.14 106.678C251.351 106.603 251.533 106.573 251.688 106.589L252.059 107.911L260.78 106.492C261.559 106.366 262.133 106.252 262.502 106.151L262.476 104.894C262.634 104.808 262.802 104.781 262.979 104.812L263.46 107.713L256.36 114.962C256.265 115.058 256.15 115.163 256.017 115.276C255.885 115.399 255.725 115.531 255.536 115.674C255.348 115.826 255.206 115.945 255.108 116.032C255.692 115.886 256.241 115.772 256.754 115.688Z" fill="#51B8DF"/>
<path d="M265.819 125.129C265.869 126.108 265.74 126.996 265.431 127.793C265.122 128.589 264.685 129.242 264.12 129.752C263.566 130.26 262.936 130.658 262.23 130.944C261.534 131.24 260.797 131.407 260.018 131.447C258.22 131.538 256.673 131.051 255.376 129.986C254.079 128.92 253.385 127.513 253.295 125.766C253.245 124.797 253.374 123.914 253.683 123.118C253.993 122.321 254.424 121.668 254.979 121.159C255.543 120.65 256.173 120.248 256.869 119.952C257.565 119.666 258.298 119.504 259.067 119.465C260.215 119.406 261.292 119.602 262.296 120.052C263.302 120.511 264.122 121.185 264.759 122.074C265.407 122.973 265.76 123.991 265.819 125.129ZM254.118 125.709C254.167 126.648 254.477 127.428 255.05 128.05C255.634 128.681 256.347 129.115 257.191 129.353C258.034 129.6 258.966 129.698 259.984 129.646C260.953 129.597 261.81 129.408 262.554 129.08C263.308 128.761 263.913 128.265 264.369 127.591C264.835 126.917 265.043 126.105 264.994 125.156C264.923 123.788 264.37 122.775 263.335 122.117C262.299 121.458 261.032 121.167 259.534 121.243C258.506 121.296 257.584 121.483 256.77 121.804C255.965 122.126 255.31 122.624 254.804 123.301C254.299 123.978 254.07 124.78 254.118 125.709Z" fill="#51B8DF"/>
<path d="M255.42 143.572L255.418 143.602C255.821 143.729 256.633 144.023 257.854 144.485L264.299 147.002L264.531 145.8L265.085 145.837C265.008 146.383 264.952 146.91 264.918 147.419C264.888 147.858 264.867 148.398 264.853 149.038L264.314 149.003L264.202 148.003C263.973 147.828 263.542 147.599 262.91 147.316L252.797 143.233L252.824 142.844L261.4 140.526L253.215 136.826L253.258 136.423L265.224 133.324L265.456 132.121C265.608 132.091 265.793 132.103 266.009 132.158C265.932 132.704 265.864 133.416 265.805 134.294C265.75 135.102 265.716 135.827 265.703 136.467C265.519 136.515 265.34 136.503 265.164 136.431L265.069 135.177L258.305 136.713C257.39 136.903 256.532 137.061 255.732 137.189L255.73 137.219C256.375 137.462 257.198 137.807 258.2 138.254L262.639 140.203L264.798 139.624L265.03 138.422C265.182 138.392 265.367 138.404 265.583 138.459C265.506 139.005 265.44 139.697 265.383 140.535C265.332 141.293 265.299 141.998 265.285 142.648C265.102 142.696 264.922 142.684 264.746 142.612L264.651 141.358L257.996 143.051C256.897 143.309 256.038 143.483 255.42 143.572Z" fill="#51B8DF"/>
<path d="M251.589 154.317L251.995 152.21C252.184 152.189 252.36 152.226 252.523 152.322L252.424 153.573C252.914 153.717 253.487 153.858 254.143 153.997L262.803 155.821L263.205 154.664C263.36 154.656 263.541 154.694 263.748 154.779C263.593 155.308 263.43 155.974 263.258 156.776C263.104 157.489 262.974 158.167 262.867 158.809C262.678 158.83 262.502 158.793 262.339 158.697L262.424 157.443C262.06 157.325 261.492 157.185 260.719 157.022L252.177 155.222L251.137 160.062L253.646 161.311C253.654 161.466 253.615 161.647 253.53 161.854L250.128 161.122L251.589 154.317Z" fill="#51B8DF"/>
<path d="M259.816 171.297C259.518 172.231 259.084 173.017 258.513 173.656C257.942 174.295 257.302 174.754 256.593 175.036C255.894 175.32 255.162 175.473 254.399 175.497C253.643 175.532 252.892 175.434 252.148 175.201C250.43 174.663 249.151 173.671 248.311 172.224C247.47 170.778 247.316 169.22 247.848 167.553C248.142 166.629 248.575 165.848 249.146 165.209C249.717 164.57 250.352 164.109 251.052 163.825C251.761 163.544 252.493 163.385 253.25 163.35C254.003 163.323 254.748 163.425 255.482 163.655C256.58 163.998 257.521 164.555 258.304 165.324C259.084 166.102 259.616 167.018 259.9 168.07C260.19 169.136 260.162 170.211 259.816 171.297ZM248.64 167.785C248.354 168.681 248.37 169.519 248.688 170.299C249.013 171.092 249.528 171.746 250.235 172.261C250.94 172.785 251.778 173.199 252.752 173.504C253.678 173.793 254.547 173.914 255.361 173.864C256.18 173.827 256.923 173.572 257.588 173.099C258.263 172.629 258.744 171.942 259.033 171.037C259.449 169.732 259.288 168.591 258.549 167.616C257.81 166.641 256.725 165.93 255.294 165.482C254.311 165.174 253.381 165.03 252.503 165.049C251.636 165.071 250.845 165.311 250.133 165.769C249.42 166.227 248.922 166.899 248.64 167.785Z" fill="#51B8DF"/>
<path d="M245.914 175.882L245.289 176.937C245.135 176.914 244.965 176.841 244.779 176.718C245.059 176.152 245.285 175.673 245.457 175.279C245.553 175.059 245.761 174.56 246.079 173.782C246.268 173.798 246.434 173.869 246.575 173.995L246.344 174.973C246.5 175.215 246.829 175.573 247.33 176.049L255.292 183.675L255.082 184.157L242.573 183.524L241.949 184.578C241.795 184.556 241.625 184.483 241.439 184.359C241.719 183.794 242.015 183.154 242.327 182.439C242.559 181.908 242.835 181.253 243.153 180.476C243.342 180.492 243.508 180.563 243.649 180.689L243.316 181.9L247.249 182.151L248.811 178.578L245.914 175.882ZM253.265 182.659L253.271 182.645C252.887 182.35 252.4 181.929 251.809 181.382L249.393 179.121L248.047 182.2L251.353 182.426C251.997 182.474 252.635 182.552 253.265 182.659Z" fill="#51B8DF"/>
<path d="M241.354 184.471C241.541 184.505 241.699 184.591 241.828 184.73L241.381 185.904C241.695 186.121 242.199 186.419 242.893 186.797L250.648 191.028L251.371 190.038C251.522 190.075 251.684 190.164 251.858 190.304C251.776 190.43 251.657 190.633 251.502 190.913C251.191 191.472 250.812 192.205 250.365 193.112C249.922 194.032 249.664 194.558 249.591 194.689C248.639 196.402 247.452 197.446 246.031 197.821C244.61 198.196 243.113 197.955 241.542 197.098C239.944 196.226 238.849 195.088 238.258 193.683C237.666 192.278 237.785 190.828 238.616 189.334C238.893 188.835 239.269 188.18 239.743 187.368C240.209 186.552 240.541 185.964 240.74 185.606C241.022 185.099 241.227 184.72 241.354 184.471ZM239.525 189.18C238.155 191.645 239.085 193.758 242.316 195.521C243.711 196.282 244.993 196.56 246.16 196.354C247.322 196.156 248.265 195.469 248.988 194.292C249.056 194.192 249.15 194.032 249.271 193.814C249.529 193.351 249.727 192.912 249.866 192.498C249.552 192.281 249.03 191.974 248.302 191.576L240.585 187.366C240.527 187.471 240.38 187.716 240.143 188.099C239.911 188.496 239.705 188.857 239.525 189.18Z" fill="#51B8DF"/>
<path d="M241.547 202.808L234.135 198L233.339 198.932C233.191 198.884 233.036 198.783 232.873 198.63C233.246 198.121 233.636 197.558 234.044 196.941C234.342 196.49 234.714 195.909 235.161 195.197C235.345 195.245 235.496 195.343 235.614 195.491L235.078 196.628C235.375 196.868 235.855 197.203 236.517 197.633L243.93 202.441L244.726 201.509C244.873 201.557 245.029 201.658 245.191 201.811C244.854 202.248 244.46 202.808 244.008 203.492C243.605 204.101 243.237 204.685 242.904 205.244C242.72 205.196 242.569 205.098 242.451 204.95L242.986 203.813C242.69 203.573 242.21 203.238 241.547 202.808Z" fill="#51B8DF"/>
<path d="M229.432 209.982L233.75 213.275C234.378 213.754 234.856 214.093 235.182 214.292L236.181 213.299C236.361 213.361 236.504 213.47 236.611 213.627C236.2 214.106 235.814 214.579 235.452 215.045C235.053 215.558 234.698 216.048 234.386 216.514C234.187 216.412 234.039 216.3 233.945 216.178L234.663 215.009L225.729 208.196L226.217 207.568L237.397 207.775C237.913 207.779 238.563 207.815 239.345 207.884C238.949 207.644 238.492 207.328 237.975 206.934L232.846 203.022C232.218 202.543 231.741 202.204 231.414 202.006L230.415 202.998C230.235 202.936 230.092 202.827 229.985 202.67C230.529 202.003 230.911 201.528 231.132 201.244C231.494 200.778 231.854 200.291 232.21 199.783C232.41 199.885 232.557 199.997 232.652 200.12L231.933 201.289L238.959 206.646C239.587 207.125 240.064 207.464 240.391 207.663L241.298 206.789C241.47 206.845 241.605 206.948 241.704 207.098L239.899 209.42L229.696 209.203C229.56 209.199 229.404 209.187 229.229 209.168C229.049 209.156 228.841 209.129 228.607 209.089C228.366 209.056 228.181 209.034 228.05 209.023C228.558 209.347 229.019 209.667 229.432 209.982Z" fill="#51B8DF"/>
<path d="M217.387 216.683L218.552 217.247C218.746 215.835 219.217 214.74 219.967 213.962C220.646 213.256 221.367 212.76 222.127 212.475C222.896 212.196 223.657 212.083 224.411 212.136C225.173 212.196 225.906 212.393 226.61 212.728C227.315 213.078 227.951 213.52 228.518 214.056C229.092 214.599 229.558 215.225 229.916 215.935C230.274 216.658 230.483 217.414 230.545 218.201C230.599 218.995 230.49 219.793 230.217 220.595C229.952 221.403 229.476 222.164 228.789 222.877C227.832 223.871 226.733 224.58 225.492 225.004L223.399 223.025C223.502 222.875 223.602 222.75 223.699 222.649C223.803 222.541 223.901 222.461 223.992 222.41L226.146 223.784C226.88 223.598 227.64 223.098 228.424 222.284C228.861 221.83 229.151 221.32 229.294 220.754C229.444 220.194 229.469 219.613 229.37 219.01C229.278 218.413 229.061 217.817 228.72 217.219C228.386 216.629 227.951 216.079 227.413 215.571C226.839 215.028 226.246 214.592 225.634 214.261C225.015 213.938 224.41 213.73 223.818 213.639C223.226 213.547 222.662 213.578 222.125 213.731C221.589 213.899 221.113 214.199 220.697 214.631C220.024 215.33 219.554 216.199 219.287 217.241L221.609 219.435L222.561 218.663C222.611 218.683 222.676 218.731 222.756 218.806C222.792 218.841 222.829 218.875 222.865 218.909C222.901 218.944 222.935 218.989 222.964 219.044C222.755 219.232 222.533 219.441 222.297 219.672C222.054 219.91 221.786 220.181 221.495 220.483C220.989 221.009 220.521 221.516 220.092 222.005C220.006 221.965 219.93 221.914 219.864 221.852C219.799 221.79 219.744 221.718 219.699 221.634L220.432 220.614C220.308 220.469 220.144 220.293 219.94 220.087C219.736 219.88 219.489 219.64 219.198 219.365L218.097 218.324L217.002 217.083C217.015 217.041 217.036 217.005 217.064 216.976C217.091 216.947 217.122 216.915 217.157 216.879C217.192 216.843 217.227 216.807 217.261 216.771C217.296 216.735 217.338 216.706 217.387 216.683Z" fill="#51B8DF"/>
<path d="M187.59 240.53L189.992 245.4C190.341 246.109 190.618 246.625 190.822 246.948L192.157 246.502C192.291 246.638 192.37 246.799 192.396 246.987C191.815 247.234 191.26 247.486 190.729 247.743C190.143 248.026 189.608 248.308 189.121 248.587C188.988 248.408 188.906 248.242 188.876 248.09L190.038 247.361L185.07 237.284L185.786 236.938L195.7 242.089C196.161 242.321 196.726 242.642 197.396 243.051C197.147 242.66 196.88 242.174 196.592 241.591L193.74 235.805C193.391 235.097 193.114 234.581 192.91 234.258L191.574 234.704C191.441 234.568 191.361 234.407 191.336 234.219C192.119 233.863 192.672 233.606 192.996 233.449C193.527 233.192 194.065 232.915 194.61 232.618C194.744 232.798 194.825 232.964 194.856 233.116L193.693 233.845L197.6 241.769C197.949 242.478 198.226 242.994 198.43 243.317L199.63 242.937C199.76 243.063 199.835 243.215 199.856 243.394L197.209 244.674L188.173 239.948C188.053 239.884 187.919 239.805 187.771 239.709C187.615 239.619 187.441 239.503 187.249 239.362C187.048 239.226 186.892 239.124 186.78 239.056C187.09 239.572 187.36 240.064 187.59 240.53Z" fill="#51B8DF"/>
<path d="M181.41 251.751C180.487 252.079 179.598 252.21 178.744 252.142C177.89 252.074 177.136 251.843 176.483 251.449C175.833 251.064 175.268 250.576 174.787 249.982C174.3 249.402 173.924 248.745 173.658 248.012C173.045 246.319 173.06 244.701 173.702 243.157C174.345 241.612 175.49 240.547 177.139 239.961C178.053 239.636 178.937 239.507 179.791 239.575C180.645 239.643 181.397 239.869 182.047 240.254C182.7 240.648 183.27 241.135 183.757 241.716C184.235 242.299 184.604 242.953 184.867 243.677C185.258 244.758 185.386 245.844 185.248 246.932C185.101 248.025 184.695 249.002 184.029 249.865C183.357 250.741 182.484 251.369 181.41 251.751ZM177.434 240.732C176.549 241.046 175.891 241.566 175.463 242.292C175.028 243.03 174.82 243.836 174.839 244.71C174.849 245.588 175.027 246.506 175.375 247.465C175.705 248.377 176.136 249.142 176.668 249.759C177.194 250.389 177.847 250.826 178.626 251.069C179.409 251.322 180.248 251.289 181.143 250.97C182.434 250.512 183.244 249.693 183.572 248.515C183.901 247.337 183.809 246.043 183.298 244.633C182.948 243.664 182.499 242.837 181.952 242.15C181.409 241.473 180.74 240.989 179.943 240.699C179.147 240.409 178.311 240.42 177.434 240.732Z" fill="#51B8DF"/>
<path d="M160.324 247.145L160.295 247.152C160.288 247.574 160.238 248.435 160.145 249.737L159.577 256.627L160.796 256.508L160.919 257.049C160.373 257.13 159.852 257.226 159.354 257.338C158.925 257.434 158.401 257.566 157.783 257.735L157.663 257.208L158.589 256.817C158.692 256.548 158.788 256.07 158.878 255.384L159.898 244.535L160.279 244.45L164.956 252.012L166.16 243.12L166.559 243.046L172.956 253.635L174.175 253.517C174.248 253.654 174.289 253.834 174.299 254.058C173.753 254.139 173.051 254.275 172.192 254.467C171.402 254.644 170.697 254.817 170.079 254.986C169.981 254.823 169.941 254.648 169.959 254.459L171.134 254.012L167.726 247.965C167.282 247.142 166.884 246.365 166.533 245.634L166.504 245.641C166.455 246.328 166.36 247.215 166.218 248.302L165.621 253.108L166.793 255.013L168.012 254.894C168.085 255.032 168.126 255.212 168.136 255.436C167.59 255.517 166.907 255.649 166.088 255.832C165.346 255.998 164.661 256.166 164.034 256.337C163.935 256.175 163.895 255.999 163.914 255.811L165.089 255.364L161.56 249.467C160.998 248.486 160.586 247.712 160.324 247.145Z" fill="#51B8DF"/>
<path d="M148.471 246.609L150.605 246.388C150.68 246.562 150.695 246.742 150.65 246.926L149.423 247.193C149.426 247.704 149.456 248.294 149.512 248.962L150.254 257.781L151.478 257.83C151.53 257.976 151.545 258.161 151.524 258.383C150.973 258.388 150.288 258.425 149.471 258.492C148.743 258.552 148.057 258.624 147.412 258.708C147.337 258.533 147.322 258.354 147.367 258.169L148.592 257.888C148.6 257.506 148.571 256.921 148.505 256.134L147.773 247.435L142.84 247.842L142.365 250.605C142.219 250.658 142.034 250.673 141.812 250.651L141.535 247.182L148.471 246.609Z" fill="#51B8DF"/>
<path d="M134.411 259.398C133.431 259.385 132.554 259.199 131.778 258.839C131.003 258.479 130.379 258.001 129.907 257.405C129.435 256.818 129.079 256.164 128.838 255.441C128.588 254.727 128.467 253.981 128.478 253.201C128.502 251.401 129.087 249.888 130.233 248.663C131.379 247.438 132.827 246.837 134.577 246.859C135.547 246.872 136.42 247.058 137.195 247.418C137.97 247.778 138.594 248.252 139.066 248.838C139.539 249.434 139.9 250.089 140.15 250.802C140.391 251.515 140.506 252.257 140.496 253.027C140.481 254.177 140.217 255.238 139.704 256.212C139.181 257.185 138.456 257.961 137.528 258.539C136.59 259.126 135.551 259.413 134.411 259.398ZM134.581 247.684C133.641 247.672 132.843 247.932 132.186 248.463C131.519 249.005 131.039 249.689 130.748 250.515C130.448 251.341 130.29 252.264 130.277 253.284C130.264 254.254 130.397 255.121 130.677 255.884C130.947 256.658 131.404 257.294 132.047 257.792C132.691 258.301 133.487 258.561 134.437 258.573C135.807 258.591 136.854 258.105 137.577 257.114C138.3 256.123 138.671 254.878 138.691 253.378C138.705 252.348 138.577 251.417 138.308 250.583C138.039 249.759 137.583 249.074 136.94 248.525C136.298 247.977 135.511 247.696 134.581 247.684Z" fill="#51B8DF"/>
<path d="M126.083 247.435L124.893 247.146C124.871 246.992 124.893 246.809 124.958 246.595C125.581 246.697 126.106 246.773 126.533 246.822C126.771 246.85 127.309 246.902 128.145 246.979C128.184 247.165 128.163 247.343 128.082 247.515L127.078 247.58C126.891 247.8 126.64 248.219 126.325 248.837L121.268 258.67L120.747 258.61L117.798 246.475L116.609 246.187C116.587 246.033 116.608 245.849 116.674 245.636C117.296 245.738 117.995 245.834 118.77 245.924C119.346 245.99 120.052 246.062 120.889 246.139C120.927 246.324 120.906 246.503 120.826 246.675L119.568 246.711L120.445 250.542L124.319 250.99L126.083 247.435ZM121.668 256.437L121.682 256.438C121.857 255.985 122.123 255.397 122.48 254.673L123.963 251.704L120.625 251.318L121.347 254.542C121.484 255.172 121.591 255.804 121.668 256.437Z" fill="#51B8DF"/>
<path d="M116.418 245.582C116.438 245.77 116.399 245.946 116.302 246.109L115.046 246.022C114.925 246.384 114.78 246.952 114.61 247.723L112.71 256.351L113.865 256.754C113.872 256.909 113.832 257.09 113.746 257.296C113.601 257.255 113.373 257.201 113.06 257.133C112.434 256.998 111.623 256.848 110.625 256.683C109.615 256.527 109.037 256.432 108.89 256.401C106.974 255.987 105.637 255.155 104.877 253.907C104.118 252.658 103.931 251.16 104.316 249.412C104.707 247.635 105.496 246.26 106.683 245.289C107.87 244.318 109.299 244.013 110.97 244.374C111.527 244.494 112.263 244.663 113.177 244.881C114.094 245.09 114.753 245.237 115.154 245.324C115.72 245.446 116.142 245.532 116.418 245.582ZM111.372 245.197C108.616 244.602 106.842 246.101 106.051 249.695C105.709 251.248 105.8 252.551 106.326 253.606C106.842 254.659 107.767 255.36 109.103 255.71C109.219 255.745 109.398 255.789 109.643 255.842C110.161 255.954 110.639 256.016 111.076 256.029C111.197 255.666 111.346 255.08 111.525 254.269L113.415 245.685C113.298 245.659 113.022 245.59 112.586 245.475C112.139 245.368 111.734 245.275 111.372 245.197Z" fill="#51B8DF"/>
<path d="M98.8815 251.105L101.427 242.645L100.305 242.158C100.31 242.003 100.364 241.825 100.465 241.626C101.061 241.833 101.714 242.042 102.423 242.251C102.941 242.404 103.606 242.59 104.417 242.809C104.423 242.998 104.371 243.17 104.262 243.326L103.016 243.146C102.868 243.498 102.68 244.053 102.452 244.809L99.9064 253.269L101.028 253.757C101.024 253.912 100.97 254.089 100.868 254.288C100.352 254.094 99.7013 253.881 98.9149 253.649C98.2148 253.442 97.5487 253.261 96.9167 253.106C96.911 252.917 96.9629 252.744 97.0723 252.589L98.3182 252.769C98.466 252.416 98.6538 251.862 98.8815 251.105Z" fill="#51B8DF"/>
<path d="M88.4878 241.625L86.5196 246.686C86.2333 247.422 86.0399 247.975 85.9396 248.343L87.1776 249.008C87.1685 249.197 87.1032 249.365 86.9819 249.511C86.4042 249.259 85.8397 249.027 85.2885 248.817C84.6812 248.585 84.1087 248.388 83.571 248.226C83.6134 248.006 83.6805 247.834 83.7722 247.708L85.1019 248.055L89.1742 237.584L89.9169 237.868L92.8513 248.572C92.9923 249.065 93.1394 249.694 93.2926 250.459C93.4126 250.012 93.5904 249.486 93.826 248.88L96.1639 242.869C96.4502 242.133 96.6436 241.58 96.744 241.212L95.5059 240.547C95.5151 240.357 95.5803 240.19 95.7016 240.043C96.4978 240.369 97.0641 240.595 97.4005 240.724C97.9517 240.934 98.5224 241.136 99.1125 241.329C99.0701 241.548 99.0031 241.721 98.9113 241.846L97.5817 241.499L94.3793 249.734C94.0929 250.47 93.8996 251.022 93.7992 251.391L94.8972 252.002C94.8916 252.182 94.83 252.341 94.7123 252.478L91.9655 251.429L89.3144 241.652C89.2796 241.521 89.2473 241.369 89.2175 241.197C89.1785 241.022 89.1456 240.817 89.119 240.582C89.083 240.343 89.0522 240.16 89.0267 240.033C88.8559 240.61 88.6763 241.141 88.4878 241.625Z" fill="#51B8DF"/>
<path d="M76.4201 231.854L76.2062 233.123C77.6259 232.898 78.818 233.029 79.7823 233.515C80.6574 233.956 81.3409 234.497 81.8328 235.137C82.3201 235.786 82.6456 236.476 82.8092 237.208C82.9681 237.949 82.9857 238.703 82.8618 239.469C82.7245 240.239 82.4776 240.972 82.1211 241.665C81.7601 242.368 81.2877 242.992 80.7039 243.538C80.1065 244.088 79.4364 244.506 78.6936 244.792C77.9417 245.074 77.1398 245.201 76.2877 245.175C75.4311 245.157 74.5607 244.926 73.6767 244.48C72.4445 243.859 71.4475 243.02 70.6859 241.965L72.002 239.403C72.1765 239.457 72.3262 239.516 72.4512 239.579C72.5851 239.646 72.6899 239.716 72.7655 239.788L72.0493 242.232C72.438 242.876 73.1369 243.452 74.1459 243.961C74.7085 244.244 75.2837 244.372 75.8716 244.344C76.455 244.324 77.0238 244.18 77.5781 243.911C78.1279 243.65 78.6428 243.272 79.123 242.774C79.5987 242.286 80.0056 241.713 80.3437 241.055C80.7048 240.352 80.958 239.662 81.1034 238.985C81.24 238.304 81.2684 237.669 81.1887 237.08C81.109 236.491 80.9188 235.964 80.6182 235.499C80.304 235.038 79.8791 234.673 79.3433 234.403C78.4772 233.966 77.5033 233.772 76.4217 233.82L74.9617 236.662L75.978 237.342C75.9731 237.396 75.9454 237.471 75.8952 237.569C75.8723 237.614 75.8495 237.658 75.8266 237.703C75.8038 237.747 75.7697 237.792 75.7244 237.836C75.4835 237.692 75.218 237.541 74.9279 237.384C74.6289 237.222 74.2919 237.047 73.9168 236.857C73.265 236.529 72.642 236.232 72.0479 235.966C72.0622 235.872 72.09 235.785 72.1311 235.705C72.1722 235.625 72.2267 235.552 72.2947 235.485L73.4886 235.886C73.5933 235.726 73.7164 235.519 73.8578 235.265C73.9993 235.012 74.1614 234.707 74.3442 234.352L75.0365 233.004L75.9245 231.604C75.9694 231.604 76.0096 231.613 76.0454 231.631C76.0811 231.649 76.1213 231.67 76.1659 231.692C76.2106 231.715 76.2552 231.737 76.2999 231.76C76.3445 231.782 76.3846 231.814 76.4201 231.854Z" fill="#51B8DF"/>
<path d="M38.0312 210.304L33.8304 213.745C33.2192 214.245 32.7794 214.632 32.5111 214.903L33.2657 216.088C33.1649 216.248 33.0257 216.362 32.848 216.43C32.4675 215.928 32.0882 215.45 31.7101 214.997C31.2936 214.498 30.8905 214.046 30.5007 213.641C30.6453 213.471 30.7884 213.354 30.9301 213.29L31.9208 214.243L40.6126 207.124L41.122 207.734L38.4329 218.487C38.3143 218.984 38.1343 219.604 37.8929 220.344C38.2167 220.014 38.63 219.644 39.1329 219.232L44.1229 215.145C44.734 214.644 45.1738 214.258 45.4422 213.987L44.6875 212.802C44.7883 212.642 44.9276 212.528 45.1053 212.46C45.6409 213.133 46.024 213.607 46.2547 213.884C46.6328 214.336 47.032 214.791 47.4525 215.248C47.308 215.419 47.1649 215.536 47.0232 215.6L46.0325 214.647L39.1974 220.245C38.5862 220.746 38.1464 221.132 37.8781 221.403L38.5366 222.473C38.4435 222.627 38.312 222.735 38.142 222.796L36.2581 220.539L38.7399 210.732C38.7738 210.601 38.8199 210.453 38.8782 210.289C38.9302 210.117 39.0022 209.923 39.0942 209.705C39.1797 209.48 39.2426 209.306 39.2829 209.182C38.8507 209.601 38.4335 209.975 38.0312 210.304Z" fill="#51B8DF"/>
<path d="M25.565 206.96C25.0233 206.143 24.6835 205.314 24.5457 204.473C24.4079 203.632 24.4536 202.851 24.6827 202.129C24.9035 201.413 25.2465 200.754 25.7117 200.153C26.1631 199.549 26.7156 199.034 27.3693 198.609C28.8779 197.627 30.4641 197.268 32.128 197.534C33.7919 197.799 35.1075 198.661 36.0748 200.119C36.611 200.927 36.948 201.752 37.0858 202.593C37.2236 203.434 37.1822 204.212 36.9614 204.929C36.7322 205.651 36.392 206.314 35.9407 206.918C35.4838 207.513 34.9327 208.021 34.2874 208.441C33.3235 209.069 32.2928 209.441 31.195 209.559C30.0918 209.669 29.0387 209.501 28.0356 209.056C27.0187 208.609 26.1952 207.91 25.565 206.96ZM35.3917 200.582C34.8721 199.798 34.2063 199.283 33.3945 199.036C32.5687 198.786 31.7306 198.771 30.8802 198.99C30.0243 199.201 29.1689 199.585 28.314 200.141C27.501 200.671 26.8562 201.263 26.3796 201.919C25.889 202.573 25.618 203.304 25.5667 204.113C25.5069 204.927 25.7396 205.73 26.2647 206.522C27.022 207.664 28.0159 208.258 29.2465 208.304C30.4771 208.35 31.7209 207.964 32.9781 207.146C33.8413 206.584 34.5434 205.96 35.0842 205.274C35.6167 204.593 35.9296 203.835 36.0229 202.998C36.1161 202.162 35.9057 201.357 35.3917 200.582Z" fill="#51B8DF"/>
<path d="M25.1036 185.769L25.0901 185.742C24.6776 185.835 23.8256 185.989 22.5342 186.204L15.6801 187.27L16.0929 188.422L15.5955 188.668C15.3836 188.159 15.1629 187.677 14.9332 187.222C14.735 186.829 14.4784 186.353 14.1632 185.795L14.6472 185.556L15.2544 186.36C15.5415 186.396 16.0304 186.377 16.7211 186.303L27.5439 184.745L27.7195 185.093L21.4884 191.391L30.4488 190.471L30.6177 190.839L21.8548 199.511L22.2676 200.662C22.1512 200.765 21.9854 200.847 21.7702 200.909C21.5584 200.4 21.2543 199.753 20.8579 198.967C20.4931 198.244 20.1532 197.603 19.838 197.045C19.9723 196.912 20.1336 196.832 20.322 196.805L21.044 197.837L26.1076 193.121C26.8016 192.499 27.4621 191.932 28.089 191.421L28.0755 191.394C27.3939 191.508 26.506 191.624 25.4118 191.742L20.5819 192.292L19.0107 193.873L19.4235 195.024C19.3071 195.126 19.1413 195.209 18.9261 195.27C18.7142 194.762 18.4191 194.132 18.0408 193.382C17.6985 192.704 17.3675 192.081 17.0479 191.514C17.1822 191.38 17.3435 191.301 17.5319 191.274L18.2539 192.306L23.1424 187.51C23.9617 186.736 24.6154 186.156 25.1036 185.769Z" fill="#51B8DF"/>
<path d="M22.9576 174.708L23.6836 176.727C23.5318 176.84 23.3608 176.896 23.1708 176.896L22.6175 175.767C22.1204 175.889 21.5537 176.055 20.9174 176.265L12.5126 179.036L12.7572 180.235C12.6275 180.32 12.4518 180.378 12.2301 180.409C12.0929 179.875 11.8937 179.219 11.6325 178.442C11.3999 177.75 11.1659 177.101 10.9303 176.494C11.0822 176.381 11.2531 176.324 11.4432 176.325L12.0107 177.449C12.3843 177.368 12.9463 177.203 13.6965 176.956L21.9874 174.222L20.4105 169.53L17.6075 169.712C17.5218 169.582 17.4628 169.407 17.4307 169.186L20.7405 168.11L22.9576 174.708Z" fill="#51B8DF"/>
<path d="M7.15218 164.096C6.93367 163.14 6.9082 162.244 7.07578 161.407C7.24337 160.57 7.56148 159.853 8.03013 159.256C8.48902 158.661 9.04186 158.163 9.68864 157.762C10.3234 157.353 11.0214 157.063 11.7824 156.892C13.5387 156.498 15.1478 156.716 16.6097 157.546C18.0715 158.376 18.9976 159.644 19.3878 161.349C19.6041 162.295 19.6284 163.186 19.4608 164.023C19.2932 164.86 18.98 165.576 18.5211 166.171C18.0525 166.768 17.5007 167.271 16.8659 167.68C16.2289 168.08 15.5348 168.364 14.7835 168.532C13.6614 168.784 12.5665 168.774 11.4988 168.501C10.4289 168.218 9.50349 167.693 8.72267 166.925C7.92987 166.15 7.40637 165.207 7.15218 164.096ZM18.5861 161.545C18.3765 160.628 17.9358 159.913 17.264 159.397C16.5802 158.874 15.8021 158.567 14.9299 158.476C14.0553 158.375 13.1205 158.436 12.1252 158.66C11.1788 158.872 10.3671 159.203 9.69022 159.652C9.00135 160.094 8.49032 160.685 8.15715 161.426C7.81422 162.169 7.74867 163.004 7.9605 163.93C8.26597 165.265 8.98573 166.17 10.1198 166.643C11.2538 167.116 12.5526 167.188 14.0162 166.86C15.0212 166.634 15.8974 166.294 16.6448 165.839C17.3825 165.387 17.9423 164.784 18.3243 164.033C18.7062 163.281 18.7935 162.451 18.5861 161.545Z" fill="#51B8DF"/>
<path d="M16.845 153.531L16.843 152.307C16.9869 152.249 17.1705 152.227 17.3939 152.24C17.4423 152.868 17.4932 153.396 17.5466 153.823C17.5764 154.061 17.6534 154.595 17.7775 155.426C17.6063 155.508 17.4276 155.53 17.2415 155.492L16.94 154.532C16.6819 154.402 16.2154 154.258 15.5404 154.099L4.78708 151.52L4.7219 151L15.8095 145.256L15.8075 144.032C15.9515 143.974 16.1351 143.951 16.3584 143.964C16.4069 144.593 16.4795 145.294 16.5763 146.068C16.6483 146.644 16.7464 147.347 16.8706 148.178C16.6994 148.259 16.5207 148.281 16.3346 148.244L16.0014 147.03L12.4879 148.792L12.9721 152.662L16.845 153.531ZM7.05196 151.378L7.05382 151.393C7.53522 151.455 8.16985 151.574 8.9577 151.749L12.1941 152.485L11.777 149.151L8.81617 150.618C8.23679 150.9 7.64872 151.154 7.05196 151.378Z" fill="#51B8DF"/>
<path d="M16.3488 143.839C16.1705 143.904 15.9906 143.909 15.809 143.854L15.5951 142.614C15.2141 142.584 14.6288 142.58 13.8391 142.601L5.00726 142.837L4.89045 144.056C4.74159 144.1 4.55666 144.105 4.33565 144.071C4.34155 143.92 4.34014 143.685 4.33141 143.366C4.31396 142.726 4.26647 141.902 4.18894 140.893C4.10115 139.875 4.05521 139.291 4.05112 139.142C3.99766 137.182 4.48698 135.684 5.51905 134.646C6.55113 133.608 7.96185 133.065 9.75121 133.017C11.5706 132.968 13.093 133.403 14.3184 134.32C15.5439 135.238 16.18 136.551 16.2266 138.26C16.2422 138.83 16.2528 139.585 16.2584 140.525C16.274 141.465 16.2874 142.14 16.2986 142.55C16.3144 143.13 16.3312 143.559 16.3488 143.839ZM15.5224 138.849C15.4455 136.031 13.5677 134.67 9.88903 134.769C8.2996 134.811 7.05514 135.215 6.15565 135.979C5.25589 136.733 4.79484 137.801 4.77249 139.182C4.76577 139.302 4.76582 139.488 4.77264 139.737C4.78709 140.267 4.84016 140.746 4.93186 141.174C5.31282 141.204 5.91815 141.207 6.74785 141.185L15.5347 140.95C15.5314 140.83 15.5337 140.545 15.5414 140.094C15.5388 139.634 15.5325 139.219 15.5224 138.849Z" fill="#51B8DF"/>
<path d="M6.83256 127.675L15.6567 128.114L15.868 126.908C16.0198 126.876 16.2046 126.885 16.4223 126.936C16.3604 127.564 16.3108 128.247 16.2733 128.986C16.246 129.525 16.221 130.215 16.1985 131.055C16.0157 131.106 15.8359 131.097 15.6592 131.028L15.5424 129.776C15.1649 129.717 14.5816 129.668 13.7926 129.629L4.96852 129.19L4.7572 130.396C4.60536 130.428 4.42059 130.419 4.20289 130.368C4.27068 129.821 4.32533 129.138 4.36684 128.319C4.40379 127.59 4.42373 126.9 4.42667 126.249C4.60949 126.198 4.78927 126.207 4.96601 126.276L5.08276 127.528C5.46027 127.587 6.04354 127.636 6.83256 127.675Z" fill="#51B8DF"/>
<path d="M13.601 115.457L8.21401 114.774C7.43027 114.675 6.84735 114.621 6.46524 114.613L6.1081 115.974C5.92185 116.011 5.74328 115.989 5.57238 115.906C5.68279 115.285 5.77575 114.682 5.85127 114.097C5.93447 113.453 5.99207 112.85 6.02407 112.29C6.24744 112.278 6.43098 112.301 6.57467 112.359L6.54876 113.732L17.6947 115.143L17.593 115.932L7.86221 121.367C7.41577 121.623 6.83829 121.918 6.12976 122.252C6.59252 122.26 7.14632 122.305 7.79117 122.387L14.1901 123.197C14.9738 123.296 15.5567 123.35 15.9388 123.358L16.296 121.997C16.4822 121.96 16.6608 121.983 16.8317 122.065C16.7018 122.915 16.6138 123.519 16.5677 123.876C16.4922 124.461 16.4296 125.063 16.38 125.682C16.1566 125.694 15.9731 125.671 15.8294 125.612L15.8553 124.239L7.09032 123.129C6.30658 123.03 5.72366 122.976 5.34155 122.968L5.00362 124.181C4.82728 124.219 4.65863 124.197 4.49766 124.116L4.87398 121.201L13.769 116.264C13.8884 116.199 14.0282 116.131 14.1886 116.06C14.3502 115.98 14.5422 115.898 14.7646 115.816C14.9883 115.723 15.1592 115.649 15.2773 115.593C14.6756 115.568 14.1169 115.522 13.601 115.457Z" fill="#51B8DF"/>
<path d="M20.5981 103.467L19.3097 103.564C19.8555 104.885 20.002 106.07 19.749 107.12C19.5195 108.073 19.149 108.864 18.6374 109.493C18.1161 110.12 17.517 110.6 16.8402 110.933C16.1536 111.264 15.4221 111.461 14.6458 111.524C13.862 111.575 13.0906 111.511 12.3315 111.332C11.5627 111.15 10.845 110.842 10.1783 110.407C9.50427 109.96 8.94222 109.41 8.49216 108.76C8.04445 108.099 7.73558 107.353 7.56556 106.521C7.38581 105.688 7.41186 104.79 7.64371 103.827C7.96689 102.485 8.55627 101.32 9.41184 100.33L12.2146 100.993C12.2016 101.174 12.1788 101.333 12.146 101.47C12.1109 101.615 12.067 101.733 12.0144 101.824L9.46414 101.714C8.92498 102.244 8.52309 103.059 8.25845 104.157C8.11091 104.77 8.11853 105.357 8.28132 105.92C8.43437 106.48 8.70601 106.996 9.09621 107.469C9.47669 107.939 9.96466 108.347 10.5601 108.693C11.1459 109.037 11.7988 109.295 12.5189 109.465C13.2878 109.646 14.0193 109.727 14.7134 109.706C15.41 109.675 16.0365 109.551 16.593 109.333C17.1494 109.116 17.6201 108.806 18.005 108.403C18.3826 107.989 18.6416 107.49 18.7821 106.907C19.0092 105.964 18.975 104.975 18.6794 103.939L15.57 103.204L15.1395 104.35C15.0862 104.358 15.006 104.35 14.8989 104.324C14.8503 104.313 14.8016 104.301 14.753 104.29C14.7043 104.278 14.6531 104.256 14.5994 104.223C14.6844 103.955 14.7705 103.662 14.8575 103.344C14.9468 103.015 15.0407 102.647 15.1391 102.239C15.31 101.529 15.457 100.855 15.58 100.216C15.6747 100.207 15.7658 100.214 15.8533 100.234C15.9409 100.255 16.025 100.29 16.1056 100.34L15.9892 101.592C16.1694 101.655 16.3994 101.725 16.6793 101.801C16.9592 101.878 17.2938 101.962 17.683 102.054L19.1574 102.403L20.728 102.928C20.7381 102.971 20.7385 103.013 20.7291 103.051C20.7198 103.09 20.7092 103.134 20.6975 103.183C20.6858 103.231 20.6741 103.28 20.6624 103.329C20.6507 103.377 20.6292 103.423 20.5981 103.467Z" fill="#51B8DF"/>
<path d="M30.7215 70.0989L26.015 67.3909C25.3302 66.9969 24.8131 66.7224 24.4635 66.5674L23.6018 67.681C23.4155 67.643 23.2594 67.5532 23.1338 67.4117C23.4784 66.8832 23.8 66.3644 24.0984 65.8555C24.4272 65.2948 24.7159 64.7629 24.9645 64.2599C25.1754 64.3351 25.3358 64.4274 25.4455 64.5367L24.8851 65.789L34.6232 71.3921L34.2211 72.0779L23.1132 73.3182C22.601 73.3811 21.9527 73.4292 21.1682 73.4623C21.5922 73.6486 22.0859 73.9038 22.6493 74.228L28.2399 77.4448C28.9246 77.8388 29.4418 78.1133 29.7914 78.2683L30.653 77.1547C30.8394 77.1927 30.9954 77.2824 31.1211 77.424C30.6687 78.1559 30.3515 78.6771 30.1694 78.9876C29.871 79.4966 29.578 80.026 29.2904 80.5758C29.0794 80.5006 28.9191 80.4083 28.8093 80.299L29.3697 79.0467L21.7119 74.6405C21.0271 74.2465 20.51 73.972 20.1604 73.817L19.3746 74.8012C19.1969 74.7682 19.0496 74.6834 18.9326 74.5468L20.4197 72.0107L30.561 70.9064C30.6968 70.8923 30.8525 70.8838 31.028 70.881C31.2086 70.8695 31.4177 70.8687 31.6554 70.8786C31.8981 70.8798 32.0848 70.8776 32.2156 70.8721C31.6702 70.616 31.1722 70.3583 30.7215 70.0989Z" fill="#51B8DF"/>
<path d="M29.6655 57.2074C30.2513 56.4218 30.9186 55.8196 31.6673 55.401C32.416 54.9824 33.1719 54.7549 33.935 54.7185C34.69 54.6762 35.4328 54.7674 36.1633 54.9921C36.8917 55.203 37.5707 55.5387 38.2002 55.9993C39.6528 57.0622 40.5418 58.4127 40.867 60.0508C41.1922 61.6889 40.8318 63.2094 39.7857 64.6123C39.2059 65.3899 38.5416 65.9881 37.7929 66.4067C37.0441 66.8253 36.2923 67.0558 35.5373 67.0981C34.7742 67.1345 34.0284 67.0473 33.3 66.8365C32.5776 66.6176 31.9057 66.2808 31.2842 65.8262C30.3562 65.1471 29.6461 64.3178 29.1541 63.3382C28.6681 62.3507 28.462 61.314 28.5358 60.228C28.6075 59.1282 28.984 58.1213 29.6655 57.2074ZM39.1109 64.1372C39.6729 63.3836 39.9302 62.5869 39.8829 61.7469C39.8336 60.893 39.5577 60.1088 39.0552 59.3942C38.5588 58.6716 37.8989 58.0092 37.0757 57.4068C36.2929 56.8341 35.5082 56.4395 34.7215 56.2232C33.9327 55.993 33.1463 55.9937 32.3623 56.2255C31.5702 56.4513 30.8902 56.945 30.3223 57.7066C29.5034 58.8049 29.2852 59.9339 29.6678 61.0936C30.0505 62.2532 30.847 63.276 32.0576 64.1617C32.8888 64.7699 33.7231 65.2069 34.5603 65.4725C35.3894 65.7323 36.2162 65.761 37.0405 65.5588C37.8649 65.3566 38.555 64.8827 39.1109 64.1372Z" fill="#51B8DF"/>
<path d="M49.732 49.3075L49.7527 49.2858C49.5222 48.9334 49.0813 48.1929 48.4301 47.0642L45.0462 41.0478L44.0987 41.8252L43.6932 41.4462C44.1018 41.0753 44.4819 40.7052 44.8336 40.3359C45.1371 40.0172 45.4986 39.616 45.918 39.1321L46.3126 39.5008L45.7613 40.3406C45.8263 40.6203 46.0135 41.069 46.3228 41.6866L51.547 51.2296L51.278 51.512L43.1548 47.8618L47.1302 55.8886L46.8399 56.1717L35.5907 50.9754L34.6431 51.7528C34.506 51.6793 34.3708 51.553 34.2377 51.3738C34.6462 51.0028 35.1539 50.4988 35.7609 49.8615C36.3195 49.275 36.8086 48.7398 37.228 48.2559C37.4009 48.3353 37.5324 48.4582 37.6226 48.6246L36.8954 49.649L43.1157 52.7526C43.9457 53.1861 44.7113 53.6074 45.4126 54.0165L45.4333 53.9948C45.0891 53.3993 44.6717 52.6123 44.1813 51.6339L41.9878 47.3254L39.946 46.4026L38.9985 47.18C38.8613 47.1065 38.7261 46.9802 38.593 46.801C39.0016 46.4301 39.4955 45.9405 40.0748 45.3322C40.599 44.7819 41.0743 44.2612 41.5006 43.77C41.6735 43.8495 41.805 43.9724 41.8951 44.1387L41.168 45.1632L47.4041 48.0762C48.4207 48.5747 49.1967 48.9851 49.732 49.3075Z" fill="#51B8DF"/>
<path d="M59.2778 43.6561L57.6271 45.026C57.4668 44.9234 57.3535 44.7836 57.2872 44.6064L58.1579 43.7034C57.8681 43.2823 57.5124 42.8114 57.0906 42.2908L51.5194 35.4144L50.4739 36.054C50.3482 35.9623 50.2317 35.8186 50.1245 35.6228C50.5802 35.3116 51.129 34.9008 51.7709 34.3905C52.3423 33.9362 52.873 33.4952 53.3629 33.0674C53.5232 33.1699 53.6365 33.3098 53.7028 33.487L52.8416 34.4016C53.0495 34.7217 53.4021 35.1887 53.8994 35.8025L59.3951 42.5857L63.2698 39.5052L62.1125 36.9569C62.2047 36.8325 62.3495 36.7174 62.5469 36.6116L64.7259 39.3248L59.2778 43.6561Z" fill="#51B8DF"/>
<path d="M64.0636 25.029C64.8869 24.4974 65.7224 24.1662 66.5701 24.0355C67.4177 23.9047 68.2053 23.9556 68.9329 24.1881C69.655 24.4123 70.3189 24.7573 70.9247 25.2231C71.5334 25.6752 72.0521 26.227 72.4809 26.8786C73.4704 28.3822 73.8312 29.9585 73.5636 31.6073C73.2959 33.2561 72.427 34.5552 70.9568 35.5045C70.1419 36.0306 69.3106 36.3591 68.463 36.4898C67.6153 36.6206 66.8305 36.5739 66.1084 36.3497C65.3808 36.1172 64.7127 35.7749 64.104 35.3229C63.5037 34.8654 62.9919 34.315 62.5686 33.6718C61.9365 32.7111 61.5611 31.6858 61.4424 30.5959C61.3322 29.5006 61.5013 28.457 61.9499 27.4651C62.4014 26.4594 63.1059 25.6474 64.0636 25.029ZM70.4907 34.8234C71.2804 34.3135 71.7998 33.6567 72.0491 32.853C72.3012 32.0356 72.3168 31.2042 72.0957 30.359C71.8831 29.5083 71.4965 28.6569 70.9358 27.8049C70.4026 26.9946 69.8053 26.3506 69.1439 25.8731C68.4854 25.3817 67.7484 25.1077 66.933 25.0509C66.1121 24.9858 65.3026 25.211 64.5045 25.7263C63.3536 26.4694 62.7548 27.4513 62.708 28.6718C62.6612 29.8923 63.0501 31.1291 63.8747 32.3821C64.4408 33.2425 65.0697 33.9435 65.7611 34.485C66.4471 35.0181 67.2116 35.3339 68.0544 35.4324C68.8973 35.5309 69.7094 35.3279 70.4907 34.8234Z" fill="#51B8DF"/>
<path d="M77.3241 30.5004L78.4745 30.0783C78.5796 30.1929 78.6654 30.3568 78.7318 30.57C78.1575 30.8312 77.679 31.06 77.2965 31.2564C77.083 31.3661 76.6073 31.6216 75.8693 32.023C75.7325 31.8909 75.649 31.7314 75.6189 31.5445L76.4162 30.9328C76.4472 30.6471 76.4188 30.1615 76.331 29.4759L74.975 18.5378L75.4421 18.298L84.7432 26.6909L85.8936 26.2688C85.9987 26.3834 86.0845 26.5473 86.1509 26.7605C85.5766 27.0217 84.9425 27.3304 84.2486 27.6867C83.7326 27.9517 83.1057 28.2848 82.3677 28.6862C82.2309 28.5542 82.1474 28.3947 82.1173 28.2078L83.1414 27.4796L80.2494 24.7998L76.78 26.5813L77.3241 30.5004ZM75.9051 20.6063L75.8917 20.6132C76.0029 21.0844 76.1146 21.7184 76.2267 22.5151L76.6725 25.7934L79.6615 24.2586L77.2409 21.9944C76.7712 21.5499 76.326 21.0872 75.9051 20.6063Z" fill="#51B8DF"/>
<path d="M86.1635 26.7293C86.0401 26.5846 85.9726 26.4178 85.9608 26.2288L87.0503 25.6022C86.9448 25.2352 86.7438 24.6856 86.4473 23.9534L83.1315 15.7642L81.9461 16.0738C81.8526 15.9495 81.7832 15.778 81.7378 15.5594C81.8809 15.5132 82.1012 15.4311 82.3986 15.3129C82.9933 15.0766 83.7507 14.7488 84.6705 14.3295C85.5959 13.8973 86.1283 13.6535 86.2677 13.5981C88.0892 12.8744 89.6682 12.8173 91.0046 13.4269C92.3411 14.0365 93.3452 15.1708 94.017 16.83C94.7001 18.5169 94.8254 20.0919 94.3929 21.555C93.9604 23.0181 92.9495 24.0653 91.3604 24.6967C90.8307 24.9072 90.1253 25.1767 89.2442 25.5052C88.3669 25.8431 87.7377 26.0877 87.3567 26.2391C86.8177 26.4532 86.4199 26.6166 86.1635 26.7293ZM90.5604 24.2398C93.1812 23.1985 93.801 20.9724 92.4198 17.5614C91.8231 16.0876 91.0082 15.061 89.9752 14.4815C88.9515 13.8983 87.7872 13.8337 86.4822 14.2876C86.3669 14.3227 86.1931 14.3863 85.9608 14.4786C85.4682 14.6743 85.0372 14.8887 84.6676 15.1216C84.773 15.4886 84.9815 16.0567 85.293 16.8261L88.592 24.9735C88.7035 24.9292 88.9721 24.8332 89.3978 24.6856C89.829 24.525 90.2166 24.3764 90.5604 24.2398Z" fill="#51B8DF"/>
<path d="M97.7046 12.3251L100.391 20.7417L101.596 20.5214C101.68 20.6523 101.736 20.8286 101.765 21.0501C101.155 21.2099 100.497 21.4003 99.7905 21.6215C99.2752 21.783 98.6198 21.9987 97.8243 22.2689C97.7123 22.1153 97.6575 21.9439 97.66 21.7545L98.7934 21.2108C98.716 20.8369 98.5572 20.2736 98.3169 19.521L95.6302 11.1044L94.4251 11.3247C94.3413 11.1938 94.2851 11.0176 94.2564 10.796C94.7934 10.6697 95.4531 10.484 96.2356 10.2389C96.9323 10.0207 97.5862 9.80014 98.1973 9.57726C98.3093 9.7308 98.364 9.90228 98.3615 10.0917L97.2282 10.6353C97.3056 11.0093 97.4644 11.5725 97.7046 12.3251Z" fill="#51B8DF"/>
<path d="M111.978 14.3084L110.747 9.01976C110.567 8.25033 110.415 7.68502 110.29 7.32382L108.889 7.45915C108.79 7.2972 108.749 7.12189 108.767 6.93321C109.388 6.82214 109.986 6.70091 110.561 6.56953C111.195 6.42478 111.78 6.27058 112.317 6.10692C112.406 6.31228 112.448 6.49246 112.443 6.64746L111.146 7.09752L113.693 18.04L112.918 18.217L104.439 10.9682C104.044 10.638 103.567 10.1982 103.008 9.64888C103.161 10.0858 103.311 10.6207 103.458 11.2538L104.921 17.5359C105.1 18.3053 105.252 18.8706 105.377 19.2318L106.778 19.0965C106.877 19.2584 106.918 19.4337 106.9 19.6224C106.057 19.7944 105.46 19.9205 105.109 20.0007C104.534 20.1321 103.948 20.2814 103.35 20.4487C103.261 20.2433 103.219 20.0632 103.224 19.9082L104.521 19.4581L102.518 10.8532C102.339 10.0837 102.187 9.51842 102.062 9.15722L100.807 9.25915C100.71 9.10694 100.671 8.94136 100.691 8.76243L103.558 8.10774L111.278 14.745C111.381 14.8343 111.494 14.942 111.615 15.0681C111.747 15.1919 111.89 15.3438 112.045 15.5239C112.21 15.7017 112.338 15.8364 112.432 15.9279C112.247 15.3547 112.095 14.8148 111.978 14.3084Z" fill="#51B8DF"/>
<path d="M125.042 16.7532L124.502 15.5803C123.455 16.5551 122.395 17.1084 121.323 17.24C120.351 17.3594 119.48 17.29 118.712 17.0316C117.943 16.7634 117.284 16.3707 116.736 15.8537C116.186 15.3268 115.746 14.7108 115.416 14.0058C115.095 13.2896 114.886 12.5445 114.789 11.7706C114.691 10.9867 114.729 10.2062 114.904 9.42908C115.088 8.64084 115.406 7.9217 115.858 7.27168C116.321 6.62044 116.912 6.06929 117.632 5.61824C118.35 5.15727 119.201 4.86646 120.183 4.74581C121.553 4.57764 122.851 4.72055 124.077 5.17455L124.434 8.03227C124.259 8.08397 124.102 8.11835 123.963 8.13541C123.815 8.15369 123.689 8.15404 123.586 8.13646L122.798 5.70934C122.113 5.39042 121.21 5.29982 120.088 5.43753C119.463 5.5143 118.915 5.72764 118.445 6.07755C117.974 6.41753 117.585 6.85318 117.278 7.38447C116.971 7.90585 116.759 8.50617 116.642 9.18544C116.524 9.85478 116.511 10.5566 116.603 11.2909C116.701 12.0748 116.881 12.7881 117.143 13.431C117.415 14.0727 117.75 14.6159 118.148 15.0607C118.547 15.5054 119.001 15.8375 119.512 16.0568C120.032 16.265 120.59 16.3326 121.186 16.2595C122.148 16.1413 123.063 15.7619 123.931 15.1215L123.534 11.9512L122.309 11.9504C122.283 11.9032 122.263 11.8251 122.25 11.7159C122.243 11.6663 122.237 11.6167 122.231 11.5671C122.225 11.5175 122.228 11.4617 122.24 11.3997C122.521 11.3854 122.825 11.3632 123.154 11.3329C123.493 11.3013 123.871 11.26 124.288 11.2088C125.012 11.1199 125.695 11.0209 126.336 10.9119C126.377 10.9976 126.403 11.085 126.415 11.1743C126.426 11.2636 126.422 11.3548 126.404 11.4477L125.19 11.7781C125.194 11.969 125.209 12.209 125.235 12.498C125.261 12.7869 125.299 13.1299 125.348 13.5268L125.537 15.0301L125.593 16.6856C125.555 16.7103 125.517 16.7251 125.477 16.73C125.437 16.7348 125.393 16.7403 125.343 16.7464C125.294 16.7525 125.244 16.7586 125.194 16.7647C125.145 16.7708 125.094 16.767 125.042 16.7532Z" fill="#51B8DF"/>
<path d="M160.817 14.3222L161.74 8.97131C161.875 8.19282 161.954 7.61301 161.98 7.23186L160.635 6.82153C160.606 6.63413 160.637 6.45675 160.727 6.2894C161.343 6.42417 161.942 6.54081 162.523 6.63934C163.164 6.74789 163.764 6.82921 164.323 6.88331C164.325 7.10679 164.294 7.28909 164.229 7.43023L162.857 7.35009L160.946 18.4214L160.162 18.2886L155.164 8.35943C154.928 7.90364 154.659 7.31548 154.357 6.59496C154.328 7.05661 154.258 7.60769 154.148 8.24822L153.051 14.6042C152.916 15.3827 152.836 15.9625 152.811 16.3437L154.156 16.754C154.185 16.9414 154.154 17.1188 154.064 17.2861C153.22 17.1228 152.62 17.0111 152.265 16.951C151.683 16.8525 151.084 16.7662 150.468 16.6922C150.466 16.4688 150.497 16.2865 150.562 16.1453L151.934 16.2255L153.436 7.51919C153.571 6.74071 153.65 6.16089 153.676 5.77975L152.479 5.39446C152.449 5.21692 152.477 5.0494 152.566 4.89189L155.464 5.38286L160.002 14.458C160.062 14.5798 160.124 14.7221 160.187 14.8849C160.26 15.0494 160.333 15.2443 160.406 15.4696C160.488 15.6966 160.555 15.8701 160.605 15.9902C160.658 15.3906 160.728 14.8346 160.817 14.3222Z" fill="#51B8DF"/>
<path d="M172.699 8.76252C173.642 9.03081 174.439 9.43979 175.092 9.98946C175.745 10.5391 176.22 11.163 176.517 11.861C176.817 12.5495 176.987 13.2737 177.027 14.0336C177.079 14.7867 176.997 15.5378 176.779 16.2869C176.278 18.0156 175.311 19.3208 173.879 20.2024C172.447 21.0839 170.889 21.2852 169.206 20.8061C168.273 20.5405 167.48 20.1329 166.827 19.5833C166.175 19.0336 165.698 18.4145 165.398 17.7261C165.101 17.028 164.926 16.3025 164.874 15.5494C164.831 14.7991 164.917 14.0541 165.132 13.3146C165.452 12.2102 165.989 11.2558 166.743 10.4514C167.506 9.64984 168.413 9.09166 169.462 8.77687C170.524 8.45522 171.603 8.45044 172.699 8.76252ZM169.421 20.0096C170.325 20.267 171.165 20.2253 171.941 19.8846C172.729 19.5371 173.373 19.0031 173.873 18.2826C174.384 17.5648 174.781 16.7161 175.065 15.7365C175.335 14.8049 175.437 13.9345 175.369 13.1252C175.315 12.309 175.043 11.5766 174.554 10.9281C174.068 10.2699 173.369 9.81083 172.455 9.55076C171.137 9.17571 169.998 9.3712 169.036 10.1372C168.075 10.9033 167.385 12.0066 166.967 13.4472C166.68 14.4365 166.556 15.368 166.594 16.2418C166.635 17.106 166.893 17.8863 167.367 18.5829C167.842 19.2795 168.527 19.7551 169.421 20.0096Z" fill="#51B8DF"/>
<path d="M187.709 24.8912L187.737 24.9029C187.991 24.5654 188.541 23.8969 189.386 22.8973L193.921 17.6501L192.861 17.0387L193.081 16.5291C193.572 16.7803 194.052 17.0052 194.521 17.2041C194.927 17.3756 195.43 17.5723 196.031 17.7943L195.817 18.2901L194.834 18.0694C194.592 18.2274 194.231 18.5581 193.753 19.0613L186.511 27.2509L186.152 27.0989L186.828 18.2633L180.593 24.7618L180.226 24.5902L181.295 12.3052L180.236 11.6938C180.258 11.5405 180.332 11.3706 180.456 11.1842C180.946 11.4353 181.597 11.7325 182.407 12.0755C183.153 12.3913 183.827 12.6602 184.428 12.8821C184.412 13.0708 184.341 13.2361 184.214 13.378L182.996 13.0579L182.187 19.9312C182.061 20.855 181.924 21.7147 181.777 22.5102L181.805 22.5219C182.25 21.9939 182.852 21.3311 183.61 20.5335L186.936 16.9898L187.111 14.7671L186.051 14.1557C186.074 14.0024 186.147 13.8325 186.271 13.6461C186.762 13.8973 187.394 14.1866 188.167 14.5141C188.867 14.8104 189.522 15.0714 190.133 15.2973C190.117 15.486 190.045 15.6512 189.919 15.7931L188.701 15.473L188.078 22.2946C187.954 23.4149 187.831 24.2804 187.709 24.8912Z" fill="#51B8DF"/>
<path d="M195.906 31.5428L194.039 30.4844C194.081 30.2998 194.175 30.1459 194.319 30.0226L195.475 30.5182C195.774 30.1026 196.097 29.6083 196.444 29.0354L201.033 21.4681L200.067 20.7186C200.11 20.5699 200.206 20.4117 200.355 20.244C200.807 20.5595 201.385 20.9269 202.09 21.3462C202.717 21.7195 203.318 22.0595 203.892 22.3662C203.85 22.5508 203.757 22.7047 203.612 22.828L202.448 22.3452C202.217 22.6497 201.897 23.1397 201.487 23.8152L196.96 31.2799L201.214 33.8112L203.228 31.8502C203.377 31.8927 203.536 31.9873 203.705 32.134L201.887 35.1019L195.906 31.5428Z" fill="#51B8DF"/>
<path d="M215.271 29.5493C216.06 30.1309 216.663 30.793 217.081 31.5357C217.498 32.2784 217.723 33.028 217.755 33.7846C217.793 34.5331 217.696 35.2694 217.465 35.9934C217.248 36.7153 216.905 37.388 216.436 38.0116C215.355 39.4507 213.987 40.3306 212.333 40.6513C210.679 40.9721 209.147 40.6132 207.739 39.5747C206.958 38.9991 206.359 38.3399 205.941 37.5972C205.524 36.8545 205.296 36.1089 205.258 35.3603C205.226 34.6038 205.319 33.8646 205.536 33.1427C205.761 32.4267 206.105 31.7609 206.568 31.1453C207.258 30.2259 208.099 29.5228 209.091 29.0361C210.09 28.5552 211.137 28.3519 212.232 28.4262C213.341 28.4984 214.354 28.8728 215.271 29.5493ZM208.222 38.9062C208.979 39.4641 209.781 39.72 210.628 39.674C211.49 39.626 212.283 39.3533 213.007 38.8559C213.739 38.3644 214.411 37.7109 215.024 36.8955C215.606 36.12 216.009 35.3424 216.232 34.5627C216.47 33.7809 216.474 33.0013 216.245 32.2238C216.022 31.4384 215.528 30.7638 214.764 30.2C213.661 29.387 212.524 29.1695 211.351 29.5477C210.179 29.9258 209.143 30.7145 208.242 31.9137C207.623 32.7371 207.177 33.5637 206.904 34.3935C206.637 35.2152 206.602 36.0348 206.801 36.8522C207 37.6697 207.474 38.3543 208.222 38.9062Z" fill="#51B8DF"/>
<path d="M215.238 44.2005L216.036 45.1272C215.964 45.2642 215.838 45.4 215.659 45.5346C215.213 45.0892 214.831 44.7219 214.512 44.4329C214.335 44.2716 213.928 43.916 213.293 43.3661C213.37 43.1936 213.493 43.0615 213.659 42.9697L214.515 43.5029C214.796 43.4343 215.246 43.2421 215.865 42.9262L225.759 37.9298L226.148 38.2827L221.413 49.8061L222.211 50.7328C222.139 50.8698 222.013 51.0056 221.834 51.1402C221.388 50.6948 220.876 50.2099 220.299 49.6856C219.869 49.2958 219.337 48.8259 218.701 48.276C218.779 48.1035 218.901 47.9714 219.068 47.8796L220.112 48.5843L221.651 44.9773L218.763 42.356L215.238 44.2005ZM224.121 39.5017L224.11 39.4917C223.702 39.756 223.14 40.0764 222.424 40.4528L219.472 41.9869L221.96 44.2453L223.268 41.219C223.527 40.6301 223.811 40.0577 224.121 39.5017Z" fill="#51B8DF"/>
<path d="M221.711 50.9774C221.805 50.8131 221.939 50.6931 222.114 50.6174L223.087 51.4174C223.397 51.1936 223.846 50.8184 224.435 50.2916L231.02 44.401L230.313 43.4031C230.398 43.2735 230.536 43.1502 230.727 43.0331C230.82 43.1506 230.975 43.3276 231.19 43.5641C231.622 44.037 232.196 44.63 232.914 45.3431C233.646 46.0568 234.062 46.4691 234.163 46.58C235.484 48.0284 236.089 49.4792 235.98 50.9323C235.87 52.3854 235.148 53.7087 233.814 54.9022C232.458 56.1156 231.012 56.7714 229.478 56.8694C227.944 56.9675 226.6 56.3847 225.448 55.121C225.064 54.6998 224.563 54.1352 223.945 53.4272C223.319 52.7259 222.868 52.2237 222.592 51.9207C222.201 51.4921 221.907 51.1777 221.711 50.9774ZM225.601 54.2197C227.501 56.3037 229.822 56.1188 232.565 53.6652C233.75 52.6051 234.436 51.4949 234.623 50.3347C234.817 49.1818 234.471 48.0755 233.586 47.0157C233.513 46.9203 233.392 46.7803 233.224 46.5955C232.866 46.2039 232.513 45.8758 232.164 45.6114C231.854 45.8352 231.389 46.2238 230.771 46.7772L224.22 52.6378C224.301 52.7265 224.485 52.9438 224.773 53.2897C225.076 53.6363 225.352 53.9463 225.601 54.2197Z" fill="#51B8DF"/>
<path d="M239.148 56.5296L232.153 61.9266L232.785 62.9733C232.691 63.0964 232.545 63.2094 232.346 63.3124C231.98 62.7988 231.569 62.2512 231.111 61.6694C230.778 61.245 230.343 60.7087 229.808 60.0605C229.914 59.9034 230.056 59.7935 230.236 59.7307L231.148 60.5994C231.473 60.3987 231.949 60.0571 232.574 59.5745L239.569 54.1775L238.937 53.1308C239.031 53.0077 239.178 52.8947 239.376 52.7917C239.685 53.2485 240.092 53.7992 240.599 54.4438C241.05 55.0177 241.489 55.5509 241.914 56.0436C241.809 56.2007 241.666 56.3107 241.487 56.3734L240.575 55.5047C240.249 55.7054 239.774 56.047 239.148 56.5296Z" fill="#51B8DF"/>
<path d="M242.432 70.7009L246.983 67.7388C247.645 67.3078 248.124 66.972 248.421 66.7314L247.8 65.4707C247.918 65.3225 248.069 65.2243 248.253 65.1761C248.576 65.7175 248.901 66.234 249.227 66.7257C249.586 67.2674 249.937 67.7606 250.28 68.2055C250.118 68.3588 249.963 68.4597 249.815 68.5082L248.935 67.4526L239.519 73.5814L239.08 72.9189L242.928 62.5213C243.1 62.0393 243.347 61.4433 243.668 60.7332C243.31 61.0258 242.859 61.3494 242.314 61.704L236.908 65.2226C236.246 65.6535 235.767 65.9893 235.471 66.2299L236.091 67.4906C235.973 67.6388 235.822 67.737 235.638 67.7852C235.18 67.0576 234.851 66.5439 234.652 66.2439C234.326 65.7522 233.979 65.2562 233.611 64.7559C233.773 64.6025 233.928 64.5016 234.076 64.4531L234.956 65.5088L242.361 60.6892C243.023 60.2583 243.502 59.9225 243.799 59.6818L243.261 58.5461C243.371 58.4034 243.513 58.3107 243.689 58.2679L245.314 60.7179L241.775 70.1982C241.727 70.3249 241.665 70.4666 241.589 70.6235C241.518 70.7886 241.426 70.9743 241.31 71.1805C241.201 71.3951 241.119 71.5615 241.066 71.6799C241.541 71.3109 241.996 70.9846 242.432 70.7009Z" fill="#51B8DF"/>
<path d="M244.762 83.8189L245.675 82.9115C244.39 82.2674 243.497 81.4669 242.996 80.51C242.542 79.6417 242.301 78.8042 242.274 77.9975C242.256 77.1863 242.394 76.4355 242.687 75.7453C242.989 75.0505 243.414 74.4278 243.961 73.8771C244.522 73.3308 245.149 72.8794 245.843 72.5232C246.545 72.1623 247.293 71.9302 248.085 71.8269C248.891 71.7278 249.679 71.7783 250.45 71.9784C251.225 72.1874 251.951 72.5507 252.629 73.0685C253.315 73.5818 253.887 74.277 254.346 75.1541C254.986 76.3769 255.308 77.6391 255.312 78.941L252.75 80.2565C252.64 80.1107 252.553 79.9758 252.488 79.8518C252.418 79.7189 252.374 79.6013 252.354 79.499L254.36 77.9294C254.419 77.1797 254.186 76.3042 253.663 75.303C253.37 74.7448 252.977 74.306 252.483 73.9866C251.997 73.6626 251.451 73.4486 250.843 73.3446C250.245 73.236 249.606 73.2439 248.926 73.3681C248.255 73.4878 247.59 73.7167 246.932 74.0547C246.229 74.4155 245.621 74.8287 245.109 75.2943C244.601 75.7686 244.208 76.2684 243.93 76.7934C243.651 77.3185 243.499 77.8576 243.472 78.4108C243.459 78.9683 243.592 79.5129 243.87 80.0445C244.32 80.9039 244.998 81.629 245.906 82.2198L248.748 80.7604L248.318 79.6154C248.353 79.5748 248.42 79.5294 248.518 79.4792C248.562 79.4563 248.607 79.4335 248.651 79.4106C248.695 79.3878 248.749 79.3715 248.812 79.3619C248.924 79.6191 249.052 79.8962 249.196 80.1931C249.345 80.4989 249.516 80.8379 249.711 81.2101C250.05 81.8569 250.383 82.4614 250.711 83.0236C250.645 83.0913 250.572 83.1457 250.492 83.1868C250.411 83.2279 250.324 83.2557 250.23 83.2702L249.493 82.2493C249.315 82.3184 249.094 82.4147 248.832 82.5384C248.569 82.662 248.26 82.8151 247.904 82.9978L246.556 83.6898L245.019 84.3106C244.983 84.2843 244.955 84.2534 244.937 84.218C244.918 84.1826 244.897 84.1427 244.874 84.0984C244.851 84.0541 244.828 84.0098 244.805 83.9655C244.781 83.9212 244.767 83.8723 244.762 83.8189Z" fill="#51B8DF"/>
</svg>
